<?xml version="1.0" encoding="utf-8"?>
<!-- Generator: Adobe Illustrator 20.0.0, SVG Export Plug-In . SVG Version: 6.00 Build 0)  -->
<svg version="1.1" id="Слой_1" xmlns="http://www.w3.org/2000/svg" xmlns:xlink="http://www.w3.org/1999/xlink" x="0px" y="0px"
	 viewBox="0 0 323.5 120.2" style="enable-background:new 0 0 323.5 120.2;" xml:space="preserve">
<style type="text/css">
	.st0{font-family:'Roboto-Bold';}
	.st1{font-size:45.88px;}
	.st2{fill:url(#SVGID_1_);}
	.st3{clip-path:url(#SVGID_3_);}
	.st4{fill:#F9FBFC;}
</style>
<text transform="matrix(1 0 0 1 167.0152 39.2237)" class="st0 st1">ASUTP</text>
<text transform="matrix(1 0 0 1 167.0149 94.3241)" class="st0 st1">LAB</text>
<linearGradient id="SVGID_1_" gradientUnits="userSpaceOnUse" x1="82.9875" y1="725.7798" x2="82.9875" y2="812.8936" gradientTransform="matrix(1 0 0 1 0 -722)">
	<stop  offset="0" style="stop-color:#3887FE"/>
	<stop  offset="1" style="stop-color:#8338EA"/>
</linearGradient>
<path class="st2" d="M4,58.1l69.3,40c6,3.4,13.3,3.4,19.3,0l69.3-40c5.4-3.1,5.4-10.9,0-14l-69.3-40c-6-3.4-13.3-3.4-19.3,0L4,44.1
	C-1.3,47.2-1.3,55,4,58.1z"/>
<g>
	<g>
		<g>
			<defs>
				<path id="SVGID_2_" d="M4,58.1l69.3,40c6,3.4,13.3,3.4,19.3,0l69.3-40c5.4-3.1,5.4-10.9,0-14l-69.3-40c-6-3.4-13.3-3.4-19.3,0
					L4,44.1C-1.3,47.2-1.3,55,4,58.1z"/>
			</defs>
			<clipPath id="SVGID_3_">
				<use xlink:href="#SVGID_2_"  style="overflow:visible;"/>
			</clipPath>
			<g class="st3">
				<g>
					<g>
						<path class="st4" d="M3.9,60.4c-0.4,0-0.8-0.2-1-0.6c-0.3-0.6-0.1-1.3,0.4-1.7l32-18.5c0.6-0.3,1.3-0.1,1.7,0.4
							c0.3,0.6,0.1,1.3-0.4,1.7l-32,18.5C4.3,60.4,4.1,60.4,3.9,60.4z"/>
					</g>
					<g>
						<path class="st4" d="M17.7,67.4c-0.4,0-0.8-0.2-1-0.6c-0.3-0.5-0.1-1.2,0.4-1.6l51.4-29.7c0.5-0.3,1.2-0.1,1.6,0.4
							c0.3,0.5,0.1,1.2-0.4,1.6L18.2,67.3C18,67.4,17.8,67.4,17.7,67.4z"/>
					</g>
					<g>
						<path class="st4" d="M66.7,99.2c-0.4,0-0.8-0.2-1-0.6c-0.3-0.5-0.1-1.2,0.4-1.6l52-30c0.5-0.3,1.2-0.1,1.6,0.4
							c0.3,0.5,0.1,1.2-0.4,1.6l-52,30C67.1,99.2,66.9,99.2,66.7,99.2z"/>
					</g>
					<g>
						<path class="st4" d="M53.9,91.6c-0.4,0-0.8-0.2-1-0.6c-0.3-0.5-0.1-1.2,0.4-1.6l43.1-24.9V50.2c0-0.4,0.2-0.8,0.6-1l21-12.1
							c0.5-0.3,1.2-0.1,1.6,0.4c0.3,0.5,0.1,1.2-0.4,1.6L98.7,50.8v14.4c0,0.4-0.2,0.8-0.6,1L54.5,91.4
							C54.3,91.5,54.1,91.6,53.9,91.6z"/>
					</g>
					<g>
						<path class="st4" d="M28.1,76.4c-0.4,0-0.8-0.2-1-0.6c-0.3-0.5-0.1-1.2,0.4-1.6l58.7-33.9V26.1c0-0.6,0.5-1.1,1.1-1.1
							s1.1,0.5,1.1,1.1V41c0,0.4-0.2,0.8-0.6,1L28.7,76.2C28.5,76.4,28.3,76.4,28.1,76.4z"/>
					</g>
					<g>
						<path class="st4" d="M40.6,84.2c-0.4,0-0.8-0.2-1-0.6c-0.3-0.5-0.1-1.2,0.4-1.6l36.1-20.8c0.5-0.3,1.2-0.1,1.6,0.4
							c0.3,0.5,0.1,1.2-0.4,1.6L41.2,84C41,84.2,40.8,84.2,40.6,84.2z"/>
					</g>
				</g>
				<g>
					<path class="st4" d="M121.8,70c-1.4,0-2.7-0.3-3.8-0.9c-1.2-0.7-1.9-1.7-1.9-2.8c0-1.1,0.7-2.1,1.9-2.8c2.1-1.2,5.4-1.2,7.5,0
						c1.2,0.7,1.9,1.7,1.9,2.8s-0.7,2.1-1.9,2.8C124.5,69.7,123.2,70,121.8,70z M121.8,64.8c-0.9,0-1.9,0.2-2.6,0.6
						c-0.5,0.3-0.7,0.6-0.7,0.8c0,0.3,0.3,0.6,0.8,0.9c1.4,0.8,3.8,0.8,5.2,0c0.5-0.3,0.7-0.6,0.7-0.8c0-0.3-0.3-0.6-0.8-0.9
						C123.7,65,122.7,64.8,121.8,64.8z"/>
				</g>
				<g>
					<path class="st4" d="M79.9,64.1c-1.4,0-2.7-0.3-3.8-0.9c-1.2-0.7-1.9-1.7-1.9-2.8s0.7-2.1,1.9-2.8c2.1-1.2,5.4-1.2,7.5,0
						c1.2,0.7,1.9,1.7,1.9,2.8s-0.7,2.1-1.9,2.8C82.6,63.8,81.2,64.1,79.9,64.1z M79.8,58.9c-0.9,0-1.9,0.2-2.6,0.6
						c-0.5,0.3-0.7,0.6-0.7,0.8c0,0.3,0.3,0.6,0.8,0.9c1.4,0.8,3.8,0.8,5.2,0c0.5-0.3,0.7-0.6,0.7-0.8c0-0.3-0.3-0.6-0.8-0.9
						C81.8,59.1,80.8,58.9,79.8,58.9z"/>
				</g>
				<g>
					<path class="st4" d="M39.1,42.6c-1.4,0-2.7-0.3-3.8-0.9c-1.2-0.7-1.9-1.7-1.9-2.8s0.7-2.1,1.9-2.8c2.1-1.2,5.4-1.2,7.5,0
						c1.2,0.7,1.9,1.7,1.9,2.8S44,41,42.8,41.7C41.8,42.3,40.5,42.6,39.1,42.6z M39.1,37.4c-0.9,0-1.9,0.2-2.6,0.6
						c-0.5,0.3-0.7,0.6-0.7,0.8c0,0.3,0.3,0.6,0.8,0.9c1.4,0.8,3.8,0.8,5.2,0c0.5-0.3,0.7-0.6,0.7-0.8c0-0.3-0.3-0.6-0.8-0.9
						C41,37.6,40,37.4,39.1,37.4z"/>
				</g>
				<g>
					<path class="st4" d="M72.3,38.5c-1.4,0-2.7-0.3-3.8-0.9c-1.2-0.7-1.9-1.7-1.9-2.8s0.7-2.1,1.9-2.8c2.1-1.2,5.4-1.2,7.5,0
						c1.2,0.7,1.9,1.7,1.9,2.8s-0.7,2.1-1.9,2.8C75,38.2,73.6,38.5,72.3,38.5z M72.2,33.3c-0.9,0-1.9,0.2-2.6,0.6
						c-0.5,0.3-0.7,0.6-0.7,0.8c0,0.3,0.3,0.6,0.8,0.9c1.4,0.8,3.8,0.8,5.2,0c0.5-0.3,0.7-0.6,0.7-0.8c0-0.3-0.3-0.6-0.8-0.9
						C74.1,33.5,73.2,33.3,72.2,33.3z"/>
				</g>
				<g>
					<path class="st4" d="M121.8,39.9c-1.4,0-2.7-0.3-3.8-0.9c-1.2-0.7-1.9-1.7-1.9-2.8s0.7-2.1,1.9-2.8l0,0c2.1-1.2,5.4-1.2,7.5,0
						c1.2,0.7,1.9,1.7,1.9,2.8s-0.7,2.1-1.9,2.8C124.5,39.6,123.2,39.9,121.8,39.9z M119.2,35.3c-0.5,0.3-0.7,0.6-0.7,0.8
						c0,0.3,0.3,0.6,0.8,0.9c1.4,0.8,3.8,0.8,5.2,0c0.5-0.3,0.7-0.6,0.7-0.8c0-0.3-0.3-0.6-0.8-0.9C123,34.5,120.6,34.5,119.2,35.3
						L119.2,35.3z"/>
				</g>
				<g>
					<path class="st4" d="M90.6,28c-1.4,0-2.7-0.3-3.8-0.9c-1.2-0.7-1.9-1.7-1.9-2.8c0-1.1,0.7-2.1,1.9-2.8l0,0
						c2.1-1.2,5.4-1.2,7.5,0c1.2,0.7,1.9,1.7,1.9,2.8c0,1.1-0.7,2.1-1.9,2.8C93.3,27.7,92,28,90.6,28z M88,23.4
						c-0.5,0.3-0.7,0.6-0.7,0.8c0,0.3,0.3,0.6,0.8,0.9c1.4,0.8,3.8,0.8,5.2,0c0.5-0.3,0.7-0.6,0.7-0.8c0-0.3-0.3-0.6-0.8-0.9
						C91.8,22.6,89.4,22.6,88,23.4L88,23.4z"/>
				</g>
			</g>
		</g>
	</g>
</g>
</svg>
