<svg id="Слой_1" data-name="Слой 1" xmlns="http://www.w3.org/2000/svg" xmlns:xlink="http://www.w3.org/1999/xlink" viewBox="0 0 315.62 118.6"><defs><style>.cls-1{fill:none;}.cls-2,.cls-3{isolation:isolate;}.cls-3{font-size:45.88px;font-family:ArialMT, Arial;}.cls-3,.cls-5{fill:#fff;}.cls-4{letter-spacing:-0.02em;}.cls-6{fill:url(#Безымянный_градиент);}.cls-7{clip-path:url(#clip-path);}.cls-8{fill:#f9fbfc;}</style><linearGradient id="Безымянный_градиент" x1="82.99" y1="116.11" x2="82.99" y2="29" gradientTransform="matrix(1, 0, 0, -1, 0, 119.89)" gradientUnits="userSpaceOnUse"><stop offset="0" stop-color="#3887fe"/><stop offset="1" stop-color="#8338ea"/></linearGradient><clipPath id="clip-path" transform="translate(-0.03 -1.55)"><path class="cls-1" d="M4,58.1l69.3,40a19.53,19.53,0,0,0,19.3,0l69.3-40a8.07,8.07,0,0,0,0-14L92.6,4.1a19.53,19.53,0,0,0-19.3,0L4,44.1A8.15,8.15,0,0,0,4,58.1Z"/></clipPath></defs><title>LOGO</title><g id="OBJECTS"><g class="cls-2"><text class="cls-3" transform="translate(163.49 40.67)">ASUT<tspan class="cls-4" x="122.36" y="0">P</tspan></text><text class="cls-3" transform="translate(189.99 95.77)">LAB</text></g><path class="cls-5" d="M4,77.6l69.3,40a19.53,19.53,0,0,0,19.3,0l69.3-40a8.07,8.07,0,0,0,0-14l-69.3-40a19.53,19.53,0,0,0-19.3,0L4,63.6A8.15,8.15,0,0,0,4,77.6Z" transform="translate(-0.03 -1.55)"/><path class="cls-6" d="M4,58.1l69.3,40a19.53,19.53,0,0,0,19.3,0l69.3-40a8.07,8.07,0,0,0,0-14L92.6,4.1a19.53,19.53,0,0,0-19.3,0L4,44.1A8.15,8.15,0,0,0,4,58.1Z" transform="translate(-0.03 -1.55)"/><g class="cls-7"><path class="cls-8" d="M3.9,60.4a1.1,1.1,0,0,1-1-.6,1.39,1.39,0,0,1,.4-1.7l32-18.5a1.23,1.23,0,1,1,1.3,2.1L4.6,60.2A1.08,1.08,0,0,1,3.9,60.4Z" transform="translate(-0.03 -1.55)"/><path class="cls-8" d="M17.7,67.4a1.1,1.1,0,0,1-1-.6,1.28,1.28,0,0,1,.4-1.6L68.5,35.5a1.17,1.17,0,0,1,1.2,2L18.2,67.3A1.09,1.09,0,0,1,17.7,67.4Z" transform="translate(-0.03 -1.55)"/><path class="cls-8" d="M66.7,99.2a1.1,1.1,0,0,1-1-.6,1.28,1.28,0,0,1,.4-1.6l52-30a1.17,1.17,0,0,1,1.2,2l-52,30A.73.73,0,0,1,66.7,99.2Z" transform="translate(-0.03 -1.55)"/><path class="cls-8" d="M53.9,91.6a1.1,1.1,0,0,1-1-.6,1.28,1.28,0,0,1,.4-1.6L96.4,64.5V50.2a1.1,1.1,0,0,1,.6-1l21-12.1a1.17,1.17,0,1,1,1.2,2L98.7,50.8V65.2a1.1,1.1,0,0,1-.6,1L54.5,91.4A1.42,1.42,0,0,1,53.9,91.6Z" transform="translate(-0.03 -1.55)"/><path class="cls-8" d="M28.1,76.4a1.1,1.1,0,0,1-1-.6,1.28,1.28,0,0,1,.4-1.6L86.2,40.3V26.1a1.1,1.1,0,1,1,2.2,0V41a1.1,1.1,0,0,1-.6,1L28.7,76.2A.73.73,0,0,1,28.1,76.4Z" transform="translate(-0.03 -1.55)"/><path class="cls-8" d="M40.6,84.2a1.1,1.1,0,0,1-1-.6A1.28,1.28,0,0,1,40,82L76.1,61.2a1.17,1.17,0,1,1,1.2,2L41.2,84A.73.73,0,0,1,40.6,84.2Z" transform="translate(-0.03 -1.55)"/><path class="cls-8" d="M121.8,70a7.9,7.9,0,0,1-3.8-.9,3,3,0,0,1,0-5.6,8.26,8.26,0,0,1,7.5,0,3,3,0,0,1,0,5.6A7.24,7.24,0,0,1,121.8,70Zm0-5.2a5.54,5.54,0,0,0-2.6.6c-.5.3-.7.6-.7.8s.3.6.8.9a5.93,5.93,0,0,0,5.2,0c.5-.3.7-.6.7-.8s-.3-.6-.8-.9A5.54,5.54,0,0,0,121.8,64.8Z" transform="translate(-0.03 -1.55)"/><path class="cls-8" d="M79.9,64.1a7.9,7.9,0,0,1-3.8-.9,3,3,0,0,1,0-5.6,8.26,8.26,0,0,1,7.5,0,3,3,0,0,1,0,5.6A7.51,7.51,0,0,1,79.9,64.1Zm-.1-5.2a5.54,5.54,0,0,0-2.6.6c-.5.3-.7.6-.7.8s.3.6.8.9a5.93,5.93,0,0,0,5.2,0c.5-.3.7-.6.7-.8s-.3-.6-.8-.9A5,5,0,0,0,79.8,58.9Z" transform="translate(-0.03 -1.55)"/><path class="cls-8" d="M39.1,42.6a7.9,7.9,0,0,1-3.8-.9,3.35,3.35,0,0,1-1.9-2.8,3.35,3.35,0,0,1,1.9-2.8,8.26,8.26,0,0,1,7.5,0,3.35,3.35,0,0,1,1.9,2.8,3.35,3.35,0,0,1-1.9,2.8A7.24,7.24,0,0,1,39.1,42.6Zm0-5.2a5.54,5.54,0,0,0-2.6.6c-.5.3-.7.6-.7.8s.3.6.8.9a5.93,5.93,0,0,0,5.2,0c.5-.3.7-.6.7-.8s-.3-.6-.8-.9A5.54,5.54,0,0,0,39.1,37.4Z" transform="translate(-0.03 -1.55)"/><path class="cls-8" d="M72.3,38.5a7.9,7.9,0,0,1-3.8-.9,3.35,3.35,0,0,1-1.9-2.8A3.35,3.35,0,0,1,68.5,32,8.26,8.26,0,0,1,76,32a3.35,3.35,0,0,1,1.9,2.8A3.35,3.35,0,0,1,76,37.6,7.51,7.51,0,0,1,72.3,38.5Zm-.1-5.2a5.54,5.54,0,0,0-2.6.6c-.5.3-.7.6-.7.8s.3.6.8.9a5.93,5.93,0,0,0,5.2,0c.5-.3.7-.6.7-.8s-.3-.6-.8-.9A5.26,5.26,0,0,0,72.2,33.3Z" transform="translate(-0.03 -1.55)"/><path class="cls-8" d="M121.8,39.9A7.9,7.9,0,0,1,118,39a3.35,3.35,0,0,1-1.9-2.8,3.35,3.35,0,0,1,1.9-2.8h0a8.26,8.26,0,0,1,7.5,0,3.35,3.35,0,0,1,1.9,2.8,3.35,3.35,0,0,1-1.9,2.8A7.24,7.24,0,0,1,121.8,39.9Zm-2.6-4.6c-.5.3-.7.6-.7.8s.3.6.8.9a5.93,5.93,0,0,0,5.2,0c.5-.3.7-.6.7-.8s-.3-.6-.8-.9a5.93,5.93,0,0,0-5.2,0Z" transform="translate(-0.03 -1.55)"/><path class="cls-8" d="M90.6,28a7.9,7.9,0,0,1-3.8-.9,3.35,3.35,0,0,1-1.9-2.8,3.35,3.35,0,0,1,1.9-2.8h0a8.26,8.26,0,0,1,7.5,0,3.35,3.35,0,0,1,1.9,2.8,3.35,3.35,0,0,1-1.9,2.8A7.24,7.24,0,0,1,90.6,28ZM88,23.4c-.5.3-.7.6-.7.8s.3.6.8.9a5.93,5.93,0,0,0,5.2,0c.5-.3.7-.6.7-.8s-.3-.6-.8-.9a5.93,5.93,0,0,0-5.2,0Z" transform="translate(-0.03 -1.55)"/></g></g></svg>